<svg xmlns="http://www.w3.org/2000/svg" viewBox="0 0 620 320" role="img" aria-label="Dealer gamma exposure by strike with gamma flip near spot" preserveAspectRatio="xMidYMid meet" style="width:100%;height:auto;display:block">
  <rect x="0" y="0" width="620" height="320" fill="white"/>
  <line x1="58" y1="268.0" x2="592" y2="268.0" stroke="#d8dfe9" stroke-width="1"/><text x="50" y="271.0" text-anchor="end" font-family="'JetBrains Mono', monospace" font-size="9" fill="#5a6f87">-4</text><line x1="58" y1="208.5" x2="592" y2="208.5" stroke="#d8dfe9" stroke-width="1"/><text x="50" y="211.5" text-anchor="end" font-family="'JetBrains Mono', monospace" font-size="9" fill="#5a6f87">-2</text><line x1="58" y1="149.0" x2="592" y2="149.0" stroke="#d8dfe9" stroke-width="1"/><text x="50" y="152.0" text-anchor="end" font-family="'JetBrains Mono', monospace" font-size="9" fill="#5a6f87">+0</text><line x1="58" y1="89.5" x2="592" y2="89.5" stroke="#d8dfe9" stroke-width="1"/><text x="50" y="92.5" text-anchor="end" font-family="'JetBrains Mono', monospace" font-size="9" fill="#5a6f87">+2</text><line x1="58" y1="30.0" x2="592" y2="30.0" stroke="#d8dfe9" stroke-width="1"/><text x="50" y="33.0" text-anchor="end" font-family="'JetBrains Mono', monospace" font-size="9" fill="#5a6f87">+4</text>
  <rect x="67.7" y="149.0" width="29.1" height="53.5" fill="#bf3232" opacity="0.85"/><text x="82.3" y="288" text-anchor="middle" font-family="'JetBrains Mono', monospace" font-size="8" fill="#5a6f87">540</text><rect x="116.3" y="149.0" width="29.1" height="77.3" fill="#bf3232" opacity="0.85"/><text x="130.8" y="288" text-anchor="middle" font-family="'JetBrains Mono', monospace" font-size="8" fill="#5a6f87">545</text><rect x="164.8" y="149.0" width="29.1" height="101.2" fill="#bf3232" opacity="0.85"/><text x="179.4" y="288" text-anchor="middle" font-family="'JetBrains Mono', monospace" font-size="8" fill="#5a6f87">550</text><rect x="213.3" y="149.0" width="29.1" height="65.5" fill="#bf3232" opacity="0.85"/><text x="227.9" y="288" text-anchor="middle" font-family="'JetBrains Mono', monospace" font-size="8" fill="#5a6f87">555</text><rect x="261.9" y="149.0" width="29.1" height="32.7" fill="#bf3232" opacity="0.85"/><text x="276.5" y="288" text-anchor="middle" font-family="'JetBrains Mono', monospace" font-size="8" fill="#5a6f87">560</text><rect x="310.4" y="137.1" width="29.1" height="11.9" fill="#1a5fd4" opacity="0.85"/><text x="325.0" y="288" text-anchor="middle" font-family="'JetBrains Mono', monospace" font-size="8" fill="#5a6f87">565</text><rect x="359.0" y="92.5" width="29.1" height="56.5" fill="#1a5fd4" opacity="0.85"/><text x="373.5" y="288" text-anchor="middle" font-family="'JetBrains Mono', monospace" font-size="8" fill="#5a6f87">570</text><rect x="407.5" y="56.8" width="29.1" height="92.2" fill="#1a5fd4" opacity="0.85"/><text x="422.1" y="288" text-anchor="middle" font-family="'JetBrains Mono', monospace" font-size="8" fill="#5a6f87">575</text><rect x="456.1" y="77.6" width="29.1" height="71.4" fill="#1a5fd4" opacity="0.85"/><text x="470.6" y="288" text-anchor="middle" font-family="'JetBrains Mono', monospace" font-size="8" fill="#5a6f87">580</text><rect x="504.6" y="110.3" width="29.1" height="38.7" fill="#1a5fd4" opacity="0.85"/><text x="519.2" y="288" text-anchor="middle" font-family="'JetBrains Mono', monospace" font-size="8" fill="#5a6f87">585</text><rect x="553.2" y="131.1" width="29.1" height="17.9" fill="#1a5fd4" opacity="0.85"/><text x="567.7" y="288" text-anchor="middle" font-family="'JetBrains Mono', monospace" font-size="8" fill="#5a6f87">590</text>
  <line x1="325.0" y1="30" x2="325.0" y2="268" stroke="#0e2240" stroke-width="1.2" stroke-dasharray="3 3"/>
  <text x="330.0" y="40.0" font-family="'JetBrains Mono', monospace" font-size="8.5" font-weight="bold" fill="#0e2240">SPOT / FLIP ≈ 565</text>
  <line x1="58" y1="149.0" x2="592" y2="149.0" stroke="#0e2240" stroke-width="1"/>
  <line x1="58" y1="30" x2="58" y2="268" stroke="#0e2240" stroke-width="1"/>
  <text x="58" y="14" font-family="'JetBrains Mono', monospace" font-size="9" letter-spacing="0.1em" fill="#0e2240">DEALER GAMMA EXPOSURE ($BN / 1% MOVE) BY STRIKE</text>
  <text x="58" y="306" font-family="'JetBrains Mono', monospace" font-size="8.5" fill="#5a6f87">SPX · front-month · negative gamma below spot = trend-amplifying</text>
</svg>
