<svg xmlns="http://www.w3.org/2000/svg" viewBox="0 0 620 320" role="img" aria-label="Equity put to call ratio over the trailing 16 sessions" preserveAspectRatio="xMidYMid meet" style="width:100%;height:auto;display:block">
  <rect x="0" y="0" width="620" height="320" fill="white"/>
  <line x1="54" y1="226.7" x2="592" y2="226.7" stroke="#d8dfe9" stroke-width="1"/><text x="46" y="229.7" text-anchor="end" font-family="'JetBrains Mono', monospace" font-size="9" fill="#5a6f87">0.7</text><line x1="54" y1="185.3" x2="592" y2="185.3" stroke="#d8dfe9" stroke-width="1"/><text x="46" y="188.3" text-anchor="end" font-family="'JetBrains Mono', monospace" font-size="9" fill="#5a6f87">0.8</text><line x1="54" y1="144.0" x2="592" y2="144.0" stroke="#d8dfe9" stroke-width="1"/><text x="46" y="147.0" text-anchor="end" font-family="'JetBrains Mono', monospace" font-size="9" fill="#5a6f87">0.9</text><line x1="54" y1="102.7" x2="592" y2="102.7" stroke="#d8dfe9" stroke-width="1"/><text x="46" y="105.7" text-anchor="end" font-family="'JetBrains Mono', monospace" font-size="9" fill="#5a6f87">1.0</text><line x1="54" y1="61.3" x2="592" y2="61.3" stroke="#d8dfe9" stroke-width="1"/><text x="46" y="64.3" text-anchor="end" font-family="'JetBrains Mono', monospace" font-size="9" fill="#5a6f87">1.1</text>
  <line x1="54" y1="102.7" x2="592" y2="102.7" stroke="#bf3232" stroke-width="1" stroke-dasharray="3 3" opacity="0.7"/>
  <text x="592" y="96.7" text-anchor="end" font-family="'JetBrains Mono', monospace" font-size="8" fill="#bf3232">FEAR &gt; 1.0</text>
  <path d="M 54.0 21.6 L 89.9 57.7 L 125.7 110.9 L 161.6 20.0 L 197.5 20.0 L 233.3 20.0 L 269.2 20.0 L 305.1 20.0 L 340.9 20.0 L 376.8 20.0 L 412.7 20.0 L 448.5 20.0 L 484.4 165.5 L 520.3 20.0 L 556.1 180.0 L 592.0 125.3" fill="none" stroke="#1a5fd4" stroke-width="1.8"/>
  <circle cx="54.0" cy="21.6" r="2.2" fill="#1a5fd4"/><circle cx="89.9" cy="57.7" r="2.2" fill="#1a5fd4"/><circle cx="125.7" cy="110.9" r="2.2" fill="#1a5fd4"/><circle cx="161.6" cy="20.0" r="2.2" fill="#1a5fd4"/><circle cx="197.5" cy="20.0" r="2.2" fill="#1a5fd4"/><circle cx="233.3" cy="20.0" r="2.2" fill="#1a5fd4"/><circle cx="269.2" cy="20.0" r="2.2" fill="#1a5fd4"/><circle cx="305.1" cy="20.0" r="2.2" fill="#1a5fd4"/><circle cx="340.9" cy="20.0" r="2.2" fill="#1a5fd4"/><circle cx="376.8" cy="20.0" r="2.2" fill="#1a5fd4"/><circle cx="412.7" cy="20.0" r="2.2" fill="#1a5fd4"/><circle cx="448.5" cy="20.0" r="2.2" fill="#1a5fd4"/><circle cx="484.4" cy="165.5" r="2.2" fill="#1a5fd4"/><circle cx="520.3" cy="20.0" r="2.2" fill="#1a5fd4"/><circle cx="556.1" cy="180.0" r="2.2" fill="#1a5fd4"/>
  <circle cx="592.0" cy="125.3" r="3.5" fill="#0e2240"/>
  <text x="586.0" y="117.3" text-anchor="end" font-family="'JetBrains Mono', monospace" font-size="9" font-weight="bold" fill="#0e2240">0.95</text>
  <text x="54" y="14" font-family="'JetBrains Mono', monospace" font-size="9" letter-spacing="0.1em" fill="#0e2240">EQUITY PUT/CALL RATIO · TRAILING 16 SESSIONS</text>
  <text x="54" y="308" font-family="'JetBrains Mono', monospace" font-size="8.5" fill="#5a6f87">2026-09-01</text>
  <text x="592" y="308" text-anchor="end" font-family="'JetBrains Mono', monospace" font-size="8.5" fill="#5a6f87">Today</text>
</svg>